<svg xmlns="http://www.w3.org/2000/svg" version="1.1" width="99" height="32" style="shape-rendering:geometricPrecision; text-rendering:geometricPrecision; image-rendering:optimizeQuality; fill-rule:evenodd; clip-rule:evenodd" xmlns:xlink="http://www.w3.org/1999/xlink" viewBox="0 0 461 149">
	<g>
		<path style="opacity:0.971" fill="#465fff" d="M 75.5,13.5 C 77.6547,13.372 79.6547,13.872 81.5,15C 105.371,29.0331 129.371,42.8664 153.5,56.5C 154.5,75.8218 154.833,95.1552 154.5,114.5C 149.5,114.5 144.5,114.5 139.5,114.5C 139.833,98.4861 139.499,82.4861 138.5,66.5C 118.33,78.4195 97.9964,90.0861 77.5,101.5C 51.5064,87.1719 25.8397,72.3386 0.5,57C 25.5629,42.4733 50.5629,27.9733 75.5,13.5 Z" />
	</g>
	<g>
		<path style="opacity:0.915" fill="#465fff" d="M 232.5,53.5 C 236.514,53.3345 240.514,53.5012 244.5,54C 249.099,55.5981 251.932,58.7647 253,63.5C 253.667,74.1667 253.667,84.8333 253,95.5C 251.932,100.235 249.099,103.402 244.5,105C 240.167,105.667 235.833,105.667 231.5,105C 226.664,103.181 223.831,99.6814 223,94.5C 222.333,84.5 222.333,74.5 223,64.5C 223.942,58.7357 227.109,55.069 232.5,53.5 Z M 235.5,62.5 C 237.766,62.1412 239.599,62.8078 241,64.5C 241.667,74.5 241.667,84.5 241,94.5C 239.599,96.1922 237.766,96.8588 235.5,96.5C 234.167,85.1667 234.167,73.8333 235.5,62.5 Z" />
	</g>
	<g>
		<path style="opacity:0.896" fill="#465fff" d="M 404.5,53.5 C 409.599,53.1746 414.599,53.6746 419.5,55C 422.106,56.9384 423.939,59.4384 425,62.5C 425.667,73.8333 425.667,85.1667 425,96.5C 423.474,100.693 420.641,103.526 416.5,105C 411.411,105.826 406.411,105.492 401.5,104C 398.619,102.749 396.786,100.583 396,97.5C 394.464,87.2179 394.13,76.8845 395,66.5C 395.293,59.8646 398.459,55.5313 404.5,53.5 Z M 408.5,62.5 C 410.144,62.2865 411.644,62.6198 413,63.5C 413.667,74.1667 413.667,84.8333 413,95.5C 411.333,96.8333 409.667,96.8333 408,95.5C 407.191,84.4236 407.358,73.4236 408.5,62.5 Z" />
	</g>
	<g>
		<path style="opacity:0.927" fill="#465fff" d="M 188.5,54.5 C 191.777,54.2161 194.943,54.5495 198,55.5C 200.391,61.9485 203.058,68.2819 206,74.5C 206.5,67.8417 206.666,61.175 206.5,54.5C 209.833,54.5 213.167,54.5 216.5,54.5C 216.5,71.1667 216.5,87.8333 216.5,104.5C 213.5,104.5 210.5,104.5 207.5,104.5C 204.972,96.7532 202.139,89.0865 199,81.5C 198.5,89.1594 198.334,96.8261 198.5,104.5C 195.167,104.5 191.833,104.5 188.5,104.5C 188.5,87.8333 188.5,71.1667 188.5,54.5 Z" />
	</g>
	<g>
		<path style="opacity:0.921" fill="#465fff" d="M 256.5,54.5 C 265.5,54.5 274.5,54.5 283.5,54.5C 283.5,57.5 283.5,60.5 283.5,63.5C 280.833,63.5 278.167,63.5 275.5,63.5C 275.5,77.1667 275.5,90.8333 275.5,104.5C 271.5,104.5 267.5,104.5 263.5,104.5C 263.5,90.8333 263.5,77.1667 263.5,63.5C 261.167,63.5 258.833,63.5 256.5,63.5C 256.5,60.5 256.5,57.5 256.5,54.5 Z" />
	</g>
	<g>
		<path style="opacity:0.906" fill="#465fff" d="M 286.5,54.5 C 294.5,54.5 302.5,54.5 310.5,54.5C 310.5,57.1667 310.5,59.8333 310.5,62.5C 306.5,62.5 302.5,62.5 298.5,62.5C 298.5,66.1667 298.5,69.8333 298.5,73.5C 301.187,73.3359 303.854,73.5026 306.5,74C 307.444,76.7191 307.777,79.5525 307.5,82.5C 304.5,82.5 301.5,82.5 298.5,82.5C 298.5,87.1667 298.5,91.8333 298.5,96.5C 302.5,96.5 306.5,96.5 310.5,96.5C 310.5,99.1667 310.5,101.833 310.5,104.5C 302.5,104.5 294.5,104.5 286.5,104.5C 286.5,87.8333 286.5,71.1667 286.5,54.5 Z" />
	</g>
	<g>
		<path style="opacity:0.923" fill="#465fff" d="M 314.5,54.5 C 322.174,54.3336 329.841,54.5003 337.5,55C 342.968,57.9218 345.634,62.5885 345.5,69C 346.229,76.235 343.229,80.9017 336.5,83C 333.183,83.4983 329.85,83.665 326.5,83.5C 326.5,90.5 326.5,97.5 326.5,104.5C 322.5,104.5 318.5,104.5 314.5,104.5C 314.5,87.8333 314.5,71.1667 314.5,54.5 Z M 326.5,62.5 C 331.402,61.9006 334.068,64.0673 334.5,69C 334.014,73.753 331.348,75.9197 326.5,75.5C 326.5,71.1667 326.5,66.8333 326.5,62.5 Z" />
	</g>
	<g>
		<path style="opacity:0.921" fill="#465fff" d="M 349.5,54.5 C 353.5,54.5 357.5,54.5 361.5,54.5C 361.5,71.1667 361.5,87.8333 361.5,104.5C 357.5,104.5 353.5,104.5 349.5,104.5C 349.5,87.8333 349.5,71.1667 349.5,54.5 Z" />
	</g>
	<g>
		<path style="opacity:0.926" fill="#465fff" d="M 368.5,54.5 C 372.5,54.5 376.5,54.5 380.5,54.5C 380.5,68.5 380.5,82.5 380.5,96.5C 384.167,96.5 387.833,96.5 391.5,96.5C 391.5,99.1667 391.5,101.833 391.5,104.5C 383.833,104.5 376.167,104.5 368.5,104.5C 368.5,87.8333 368.5,71.1667 368.5,54.5 Z" />
	</g>
	<g>
		<path style="opacity:0.923" fill="#465fff" d="M 428.5,54.5 C 437.5,54.5 446.5,54.5 455.5,54.5C 455.5,57.5 455.5,60.5 455.5,63.5C 453.167,63.5 450.833,63.5 448.5,63.5C 448.5,77.1667 448.5,90.8333 448.5,104.5C 444.5,104.5 440.5,104.5 436.5,104.5C 436.5,90.8333 436.5,77.1667 436.5,63.5C 433.833,63.5 431.167,63.5 428.5,63.5C 428.5,60.5 428.5,57.5 428.5,54.5 Z" />
	</g>
	<g>
		<path style="opacity:0.96" fill="#465fff" d="M 29.5,82.5 C 45.0783,91.8746 60.9116,100.875 77,109.5C 93.246,100.917 109.246,91.9169 125,82.5C 125.667,92.8333 125.667,103.167 125,113.5C 109.144,122.428 93.1438,131.095 77,139.5C 61.3492,130.84 45.6826,122.174 30,113.5C 29.5002,103.172 29.3335,92.8387 29.5,82.5 Z" />
	</g>
</svg>
