<?xml version="1.0" encoding="UTF-8"?>
<svg xmlns="http://www.w3.org/2000/svg" version="1.1" width="211px" height="168px" style="shape-rendering:geometricPrecision; text-rendering:geometricPrecision; image-rendering:optimizeQuality; fill-rule:evenodd; clip-rule:evenodd" xmlns:xlink="http://www.w3.org/1999/xlink">
	<g>
		<path style="opacity:0.82" fill="#7a7a7a" d="M 100.5,1.5 C 100.027,2.90632 99.0269,3.57298 97.5,3.5C 97.9731,2.09368 98.9731,1.42702 100.5,1.5 Z" />
	</g>
	<g>
		<path style="opacity:1" fill="#465fff" d="M 113.5,7.5 C 113.821,9.04814 114.821,9.71481 116.5,9.5C 124.968,13.9012 133.301,18.5678 141.5,23.5C 141.821,25.0481 142.821,25.7148 144.5,25.5C 145.833,26.1667 147.167,26.8333 148.5,27.5C 148.821,29.0481 149.821,29.7148 151.5,29.5C 152.833,30.1667 154.167,30.8333 155.5,31.5C 155.821,33.0481 156.821,33.7148 158.5,33.5C 162.327,35.246 165.993,37.246 169.5,39.5C 169.821,41.0481 170.821,41.7148 172.5,41.5C 173.833,42.1667 175.167,42.8333 176.5,43.5C 176.821,45.0481 177.821,45.7148 179.5,45.5C 180.833,46.1667 182.167,46.8333 183.5,47.5C 183.821,49.0481 184.821,49.7148 186.5,49.5C 187.833,50.1667 189.167,50.8333 190.5,51.5C 190.821,53.0481 191.821,53.7148 193.5,53.5C 196.052,54.6935 198.552,56.0268 201,57.5C 201.5,82.8311 201.667,108.164 201.5,133.5C 195.5,133.5 189.5,133.5 183.5,133.5C 183.833,112.156 183.5,90.8229 182.5,69.5C 181.893,69.6236 181.56,69.9569 181.5,70.5C 154.861,85.8216 128.194,101.155 101.5,116.5C 100.893,116.376 100.56,116.043 100.5,115.5C 100.027,114.094 99.0269,113.427 97.5,113.5C 95.847,113.34 94.5137,112.674 93.5,111.5C 93.0269,110.094 92.0269,109.427 90.5,109.5C 86.3447,108.258 82.678,106.258 79.5,103.5C 79.0269,102.094 78.0269,101.427 76.5,101.5C 74.847,101.34 73.5137,100.674 72.5,99.5C 72.0269,98.0937 71.0269,97.427 69.5,97.5C 49.8337,87.0026 30.5003,76.0026 11.5,64.5C 11.0269,63.0937 10.0269,62.427 8.5,62.5C 6.84702,62.3404 5.51369,61.6737 4.5,60.5C 3.16667,59.1667 3.16667,57.8333 4.5,56.5C 25.9047,43.7746 47.5713,31.4413 69.5,19.5C 71.0269,19.573 72.0269,18.9063 72.5,17.5C 73.5137,16.3263 74.847,15.6596 76.5,15.5C 78.0269,15.573 79.0269,14.9063 79.5,13.5C 80.5137,12.3263 81.847,11.6596 83.5,11.5C 85.0269,11.573 86.0269,10.9063 86.5,9.5C 87.5137,8.32627 88.847,7.6596 90.5,7.5C 92.0269,7.57298 93.0269,6.90632 93.5,5.5C 94.5137,4.32627 95.847,3.6596 97.5,3.5C 99.0269,3.57298 100.027,2.90632 100.5,1.5C 100.56,0.956913 100.893,0.62358 101.5,0.5C 105.528,2.84496 109.528,5.17829 113.5,7.5 Z" />
	</g>
	<g>
		<path style="opacity:0.816" fill="#7b7b7b" d="M 93.5,5.5 C 93.0269,6.90632 92.0269,7.57298 90.5,7.5C 90.9731,6.09368 91.9731,5.42702 93.5,5.5 Z" />
	</g>
	<g>
		<path style="opacity:0.976" fill="#737373" d="M 113.5,7.5 C 114.71,7.93205 115.71,8.59872 116.5,9.5C 114.821,9.71481 113.821,9.04814 113.5,7.5 Z" />
	</g>
	<g>
		<path style="opacity:0.82" fill="#7c7c7c" d="M 86.5,9.5 C 86.0269,10.9063 85.0269,11.573 83.5,11.5C 83.9731,10.0937 84.9731,9.42702 86.5,9.5 Z" />
	</g>
	<g>
		<path style="opacity:0.8" fill="#808080" d="M 79.5,13.5 C 79.0269,14.9063 78.0269,15.573 76.5,15.5C 76.9731,14.0937 77.9731,13.427 79.5,13.5 Z" />
	</g>
	<g>
		<path style="opacity:0.804" fill="#818181" d="M 72.5,17.5 C 72.0269,18.9063 71.0269,19.573 69.5,19.5C 69.9731,18.0937 70.9731,17.427 72.5,17.5 Z" />
	</g>
	<g>
		<path style="opacity:0.969" fill="#787878" d="M 141.5,23.5 C 142.71,23.9321 143.71,24.5987 144.5,25.5C 142.821,25.7148 141.821,25.0481 141.5,23.5 Z" />
	</g>
	<g>
		<path style="opacity:0.969" fill="#787878" d="M 148.5,27.5 C 149.71,27.9321 150.71,28.5987 151.5,29.5C 149.821,29.7148 148.821,29.0481 148.5,27.5 Z" />
	</g>
	<g>
		<path style="opacity:0.961" fill="#797979" d="M 155.5,31.5 C 156.71,31.9321 157.71,32.5987 158.5,33.5C 156.821,33.7148 155.821,33.0481 155.5,31.5 Z" />
	</g>
	<g>
		<path style="opacity:0.949" fill="#797979" d="M 169.5,39.5 C 170.71,39.9321 171.71,40.5987 172.5,41.5C 170.821,41.7148 169.821,41.0481 169.5,39.5 Z" />
	</g>
	<g>
		<path style="opacity:0.949" fill="#7c7c7c" d="M 176.5,43.5 C 177.71,43.9321 178.71,44.5987 179.5,45.5C 177.821,45.7148 176.821,45.0481 176.5,43.5 Z" />
	</g>
	<g>
		<path style="opacity:0.941" fill="#7d7d7d" d="M 183.5,47.5 C 184.71,47.9321 185.71,48.5987 186.5,49.5C 184.821,49.7148 183.821,49.0481 183.5,47.5 Z" />
	</g>
	<g>
		<path style="opacity:0.945" fill="#7e7e7e" d="M 190.5,51.5 C 191.71,51.9321 192.71,52.5987 193.5,53.5C 191.821,53.7148 190.821,53.0481 190.5,51.5 Z" />
	</g>
	<g>
		<path style="opacity:0.863" fill="#777777" d="M 4.5,56.5 C 3.16667,57.8333 3.16667,59.1667 4.5,60.5C 0.5,59.1667 0.5,57.8333 4.5,56.5 Z" />
	</g>
	<g>
		<path style="opacity:0.435" fill="#939393" d="M 8.5,62.5 C 10.0269,62.427 11.0269,63.0937 11.5,64.5C 9.97306,64.573 8.97306,63.9063 8.5,62.5 Z" />
	</g>
	<g>
		<path style="opacity:0.764" fill="#414141" d="M 181.5,70.5 C 181.56,69.9569 181.893,69.6236 182.5,69.5C 183.5,90.8229 183.833,112.156 183.5,133.5C 182.833,112.5 182.167,91.5 181.5,70.5 Z" />
	</g>
	<g>
		<path style="opacity:1" fill="#465fff" d="M 41.5,93.5 C 45.3267,95.246 48.9934,97.246 52.5,99.5C 52.8212,101.048 53.8212,101.715 55.5,101.5C 56.8333,102.167 58.1667,102.833 59.5,103.5C 59.8212,105.048 60.8212,105.715 62.5,105.5C 66.3267,107.246 69.9934,109.246 73.5,111.5C 73.8212,113.048 74.8212,113.715 76.5,113.5C 82.5,116.833 88.5,120.167 94.5,123.5C 94.8212,125.048 95.8212,125.715 97.5,125.5C 99.6634,127.432 101.997,127.765 104.5,126.5C 106.027,126.573 107.027,125.906 107.5,124.5C 108.514,123.326 109.847,122.66 111.5,122.5C 113.027,122.573 114.027,121.906 114.5,120.5C 115.514,119.326 116.847,118.66 118.5,118.5C 120.027,118.573 121.027,117.906 121.5,116.5C 122.514,115.326 123.847,114.66 125.5,114.5C 127.027,114.573 128.027,113.906 128.5,112.5C 131.678,109.742 135.345,107.742 139.5,106.5C 141.027,106.573 142.027,105.906 142.5,104.5C 148.17,100.663 154.17,97.3296 160.5,94.5C 161.496,94.5858 162.329,94.2524 163,93.5C 163.5,106.162 163.667,118.829 163.5,131.5C 144.03,142.738 124.363,153.738 104.5,164.5C 102.5,164.5 100.5,164.5 98.5,164.5C 78.6367,153.738 58.97,142.738 39.5,131.5C 38.853,118.456 39.5197,105.789 41.5,93.5 Z" />
	</g>
	<g>
		<path style="opacity:0.502" fill="#818181" d="M 41.5,93.5 C 39.5197,105.789 38.853,118.456 39.5,131.5C 38.5045,118.677 38.1712,105.677 38.5,92.5C 39.791,92.2627 40.791,92.596 41.5,93.5 Z" />
	</g>
	<g>
		<path style="opacity:0.502" fill="#7f7f7f" d="M 163.5,131.5 C 163.667,118.829 163.5,106.162 163,93.5C 162.329,94.2524 161.496,94.5858 160.5,94.5C 161.287,92.8958 162.62,92.2291 164.5,92.5C 164.829,105.677 164.495,118.677 163.5,131.5 Z" />
	</g>
	<g>
		<path style="opacity:0.353" fill="#a2a2a2" d="M 69.5,97.5 C 71.0269,97.427 72.0269,98.0937 72.5,99.5C 70.9731,99.573 69.9731,98.9063 69.5,97.5 Z" />
	</g>
	<g>
		<path style="opacity:0.929" fill="#7e7e7e" d="M 52.5,99.5 C 53.7095,99.9321 54.7095,100.599 55.5,101.5C 53.8212,101.715 52.8212,101.048 52.5,99.5 Z" />
	</g>
	<g>
		<path style="opacity:0.361" fill="#9a9a9a" d="M 76.5,101.5 C 78.0269,101.427 79.0269,102.094 79.5,103.5C 77.9731,103.573 76.9731,102.906 76.5,101.5 Z" />
	</g>
	<g>
		<path style="opacity:0.925" fill="#7f7f7f" d="M 59.5,103.5 C 60.7095,103.932 61.7095,104.599 62.5,105.5C 60.8212,105.715 59.8212,105.048 59.5,103.5 Z" />
	</g>
	<g>
		<path style="opacity:0.851" fill="#787878" d="M 142.5,104.5 C 142.027,105.906 141.027,106.573 139.5,106.5C 139.973,105.094 140.973,104.427 142.5,104.5 Z" />
	</g>
	<g>
		<path style="opacity:0.38" fill="#9e9e9e" d="M 90.5,109.5 C 92.0269,109.427 93.0269,110.094 93.5,111.5C 91.9731,111.573 90.9731,110.906 90.5,109.5 Z" />
	</g>
	<g>
		<path style="opacity:0.929" fill="#828282" d="M 73.5,111.5 C 74.7095,111.932 75.7095,112.599 76.5,113.5C 74.8212,113.715 73.8212,113.048 73.5,111.5 Z" />
	</g>
	<g>
		<path style="opacity:0.839" fill="#757575" d="M 128.5,112.5 C 128.027,113.906 127.027,114.573 125.5,114.5C 125.973,113.094 126.973,112.427 128.5,112.5 Z" />
	</g>
	<g>
		<path style="opacity:0.384" fill="#979797" d="M 97.5,113.5 C 99.0269,113.427 100.027,114.094 100.5,115.5C 98.9731,115.573 97.9731,114.906 97.5,113.5 Z" />
	</g>
	<g>
		<path style="opacity:0.835" fill="#757575" d="M 121.5,116.5 C 121.027,117.906 120.027,118.573 118.5,118.5C 118.973,117.094 119.973,116.427 121.5,116.5 Z" />
	</g>
	<g>
		<path style="opacity:0.839" fill="#787878" d="M 114.5,120.5 C 114.027,121.906 113.027,122.573 111.5,122.5C 111.973,121.094 112.973,120.427 114.5,120.5 Z" />
	</g>
	<g>
		<path style="opacity:0.925" fill="#838383" d="M 94.5,123.5 C 95.7095,123.932 96.7095,124.599 97.5,125.5C 95.8212,125.715 94.8212,125.048 94.5,123.5 Z" />
	</g>
	<g>
		<path style="opacity:0.835" fill="#767676" d="M 107.5,124.5 C 107.027,125.906 106.027,126.573 104.5,126.5C 104.973,125.094 105.973,124.427 107.5,124.5 Z" />
	</g>
	<g>
		<path style="opacity:0.925" fill="#818181" d="M 98.5,164.5 C 100.5,164.5 102.5,164.5 104.5,164.5C 102.5,167.167 100.5,167.167 98.5,164.5 Z" />
	</g>
</svg>
